# xmcd
#
# Track frame offsets: 
#        150
#        20800
#        41902
#        75548
#        99095
#        131017
#        153067
#        172893
#        196948
#        218047
#
# Disc length: 3125 seconds
#
# Revision: 0
# Processed by: cddbd v1.5.2PL0 Copyright (c) Steve Scherf et al.
# Submitted via: ExactAudioCopy v0.99pb3
#
DISCID=760c330a
DTITLE=Two-Tone Steiny - Welcome To The Club
DYEAR=2010
DGENRE=Blues
TTITLE0=Bet Your Bottom Dollar
TTITLE1=There's A Party Goin' On
TTITLE2=Welcome To The Club
TTITLE3=Baby, You're The One
TTITLE4=Give Me One More Chance
TTITLE5=A Hundred Other Women
TTITLE6=I Don't Need You Baby
TTITLE7=Goin' Back To Chicago
TTITLE8=A Better Man
TTITLE9=You Don't Deserve To Be Treated This Way
EXTD=
EXTT0=
EXTT1=
EXTT2=
EXTT3=
EXTT4=
EXTT5=
EXTT6=
EXTT7=
EXTT8=
EXTT9=
PLAYORDER=
